<svg width="595" height="500" viewBox="0 0 595 500" fill="none" xmlns="http://www.w3.org/2000/svg">
<path fill-rule="evenodd" clip-rule="evenodd" d="M187.258 6.14118C53.215 42.0577 -26.3823 179.649 9.47217 313.46C45.3266 447.271 183.055 526.631 317.098 490.714C451.141 454.798 749.108 250.693 494.884 183.395C240.659 116.097 321.3 -29.7753 187.258 6.14118Z" fill="#3FD9B8"/>
<path d="M108.72 368.625V348.503H133V368.625H141.72V321.674H133V341.058H108.72V321.674H100V368.625H108.72ZM196.25 368.625V361.314H169.756V348.369H192.427V341.193H169.756V328.985H195.311V321.674H161.037V368.625H196.25ZM215.031 368.625L219.659 357.76H243.134L247.829 368.625H256.951L235.756 321.674H227.171L206.043 368.625H215.031ZM240.25 350.918H222.61L231.396 330.394L240.25 350.918ZM302.897 368.625V361.247H278.348V321.674H269.628V368.625H302.897ZM337.372 369.296C341.218 369.296 344.739 368.625 347.936 367.284C351.133 365.943 353.827 363.997 356.019 361.449L350.384 356.083C346.986 359.794 342.805 361.65 337.842 361.65C334.622 361.65 331.738 360.946 329.189 359.537C326.64 358.129 324.651 356.172 323.22 353.668C321.789 351.164 321.073 348.325 321.073 345.15C321.073 341.975 321.789 339.136 323.22 336.632C324.651 334.127 326.64 332.171 329.189 330.763C331.738 329.354 334.622 328.65 337.842 328.65C342.805 328.65 346.986 330.483 350.384 334.15L356.019 328.851C353.827 326.302 351.145 324.357 347.97 323.016C344.795 321.674 341.285 321.003 337.439 321.003C332.699 321.003 328.418 322.043 324.595 324.122C320.772 326.202 317.764 329.075 315.573 332.741C313.382 336.408 312.287 340.544 312.287 345.15C312.287 349.756 313.371 353.892 315.54 357.558C317.709 361.225 320.704 364.098 324.528 366.177C328.351 368.257 332.632 369.296 337.372 369.296ZM392.037 369.296C396.821 369.296 401.136 368.257 404.982 366.177C408.828 364.098 411.846 361.225 414.037 357.558C416.228 353.892 417.323 349.756 417.323 345.15C417.323 340.544 416.228 336.408 414.037 332.741C411.846 329.075 408.828 326.202 404.982 324.122C401.136 322.043 396.821 321.003 392.037 321.003C387.252 321.003 382.937 322.043 379.092 324.122C375.246 326.202 372.228 329.086 370.037 332.775C367.846 336.464 366.75 340.589 366.75 345.15C366.75 349.711 367.846 353.836 370.037 357.525C372.228 361.214 375.246 364.098 379.092 366.177C382.937 368.257 387.252 369.296 392.037 369.296ZM392.037 361.65C388.907 361.65 386.09 360.946 383.586 359.537C381.082 358.129 379.114 356.161 377.683 353.635C376.252 351.108 375.537 348.28 375.537 345.15C375.537 342.02 376.252 339.192 377.683 336.665C379.114 334.139 381.082 332.171 383.586 330.763C386.09 329.354 388.907 328.65 392.037 328.65C395.167 328.65 397.984 329.354 400.488 330.763C402.992 332.171 404.96 334.139 406.391 336.665C407.821 339.192 408.537 342.02 408.537 345.15C408.537 348.28 407.821 351.108 406.391 353.635C404.96 356.161 402.992 358.129 400.488 359.537C397.984 360.946 395.167 361.65 392.037 361.65Z" fill="white"/>
<path fill-rule="evenodd" clip-rule="evenodd" d="M195.05 283.91V152.501H218.242V276.18H225.973V222.07H233.704V222.071L287.562 222.216V222.199L295.292 222.33V284.039H273.002V247.579H248.65V284.039H240.919V240.88H280.733V276.309H287.562V229.8H233.704V283.91H210.512V160.231H202.781V283.91H195.05ZM225.973 214.34V152.501H249.166V188.96H273.517V152.501H281.248V195.66H241.435V160.231H233.704V206.61H287.562V152.501H310.754V276.18H318.485V152.501H326.216V283.91H303.023V160.231H295.292V214.34H225.973Z" fill="white"/>
</svg>
